<?xml version="1.0" encoding="UTF-8"?>
<svg width="23px" height="19px" viewBox="0 0 23 19" version="1.1" xmlns="http://www.w3.org/2000/svg" xmlns:xlink="http://www.w3.org/1999/xlink">
    <!-- Generator: Sketch 57.1 (83088) - https://sketch.com -->
    <title>32230</title>
    <desc>Created with Sketch.</desc>
    <g id="Page-1" stroke="none" stroke-width="1" fill="none" fill-rule="evenodd">
        <g id="Desktop-Copy-2" transform="translate(-20.000000, -584.000000)" fill="#000000" fill-rule="nonzero">
            <g id="32230" transform="translate(20.000000, 584.000000)">
                <path d="M7.49994082,9 C8.32843711,9 9,9.67158938 9,10.4998816 C9,11.3281739 8.32843711,12 7.49994082,12 C6.67156289,12 6,11.3281739 6,10.4998816 C6,9.67158938 6.67156289,9 7.49994082,9 Z" id="Path"></path>
                <path d="M21.9857564,10.4746271 L22.9728177,2.68841255 L15.8925609,0 L7.39966775,4.05889694 L0,0.932068822 L0.999197682,9.23871275 L0.0415391197,17.4184479 L7.90372679,18.8940448 L15.9228826,17.36593 L23,19 L21.9857564,10.4746271 Z M15.8663358,0.824772884 L22.137824,3.18945891 L21.7060851,6.5941226 L15.4551942,5.01203423 L15.8663358,0.824772884 Z M15.0367402,1.25698283 L14.7058821,4.82176685 L14.7004456,4.82050274 L10.3724905,5.37904686 L10.3465716,5.47458276 C10.3411351,5.49519155 9.83899034,7.35139979 9.30981642,8.19559397 C8.96731967,7.99406454 8.58217355,7.85911146 8.17064913,7.80908343 L7.81980628,4.70520079 L15.0367402,1.25698283 Z M14.3750622,9.20837416 L10.6135322,9.77588195 C10.4109668,9.20247499 10.039297,8.71000923 9.55663918,8.35770622 C10.0490596,7.57123963 10.493509,6.04867924 10.6054158,5.64676957 L14.6774364,5.12090072 L14.3750622,9.20837416 Z M7.05472078,4.74304741 L7.40230941,7.81659147 C6.25896907,7.97414527 5.32121866,8.78191015 4.9774968,9.85513768 L1.77002592,9.35838162 L1.46202387,6.38175249 C2.52515734,6.31134552 3.32263187,5.96517151 3.83369704,5.34748247 C4.29441756,4.79150487 4.42692161,4.13374744 4.45226622,3.64346515 L7.05472078,4.74304741 Z M0.925996947,2.15350341 L4.15973127,3.51981242 C4.15046633,3.97094568 4.04851363,4.62552369 3.60678242,5.15897718 C3.14594704,5.71495478 2.41298258,6.0259253 1.42461952,6.08832626 L0.925996947,2.15350341 Z M0.884266403,16.7989585 L1.6797884,10.1182636 L4.84311679,10.6086992 C4.84074313,10.6594167 4.83565123,10.7096746 4.83565123,10.761503 C4.83565123,11.4572986 5.07711412,12.0967073 5.4791056,12.6043423 L3.83622384,13.924339 L3.31857367,17.2554163 L0.884266403,16.7989585 Z M7.08174992,17.961861 L3.60850524,17.3100028 L4.11019061,14.0826206 L5.67363119,12.8269019 C6.15326445,13.3229685 6.80227013,13.6540498 7.52742447,13.7223882 L7.08174992,17.961861 Z M5.42608101,10.761503 C5.42608101,9.44575828 6.49556977,8.37574848 7.8098522,8.37574848 C9.12482376,8.37574848 10.1943125,9.44579659 10.1943125,10.761503 C10.1943125,12.0765582 9.12482376,13.1466446 7.8098522,13.1466446 C6.49553149,13.1468744 5.42608101,12.0765582 5.42608101,10.761503 Z M7.90273138,18.115814 L7.8357328,18.103173 L8.29974582,13.6933903 C9.70694571,13.4583812 10.784436,12.2348398 10.784436,10.7608135 C10.784436,10.6810981 10.7786933,10.6032214 10.7724528,10.524885 L14.4492584,9.97017149 L14.7561501,13.1078786 C13.1431306,13.1837251 11.9374242,13.6798682 11.1784642,14.5963464 C10.293547,15.6659731 10.2517782,16.9995686 10.2976052,17.6588965 L7.90273138,18.115814 Z M10.592131,17.6032375 C10.5564877,16.9774275 10.6081723,15.7493276 11.4062211,14.7852347 C12.1121182,13.9325366 13.2508643,13.4724396 14.7846341,13.4027222 L15.1113958,16.7412692 L10.592131,17.6032375 Z M15.4277822,5.30898464 L21.6693699,6.88816174 L21.2950967,9.83839783 L15.1322227,9.09406817 L15.4277822,5.30898464 Z M20.4462821,12.3869924 L17.6064994,12.0491692 L18.1265616,17.0895117 L15.8513664,16.6002254 L15.2061892,9.85701469 L15.2724986,9.84659538 L21.2300889,10.603298 L22.111484,18.0099738 L18.4247244,17.159076 L17.9379701,12.3861497 L20.4690234,12.6800356 L20.4462821,12.3869924 Z" id="Shape"></path>
            </g>
        </g>
    </g>
</svg>